<svg width="252" height="252" xmlns="http://www.w3.org/2000/svg" viewBox="372 170 252 252">
<defs><linearGradient id="g" x1="0" y1="0" x2="0.15" y2="1"><stop offset="0" stop-color="#EAD080"/><stop offset="0.5" stop-color="#C79A3A"/><stop offset="1" stop-color="#A2741E"/></linearGradient></defs>

<g transform="translate(400.73,175.00) scale(0.080056)"><g transform="translate(0.000000,3560.000000) scale(0.100000,-0.100000)" fill="url(#g)"><path d="M981 35230 c-13 -11 -31 -20 -40 -20 -9 0 -56 -39 -104 -88 l-87 -87
0 -116 0 -115 -15 -20 c-16 -22 -20 -54 -5 -54 5 0 13 -15 19 -34 5 -20 30
-55 56 -80 l47 -46 97 0 98 0 23 -20 23 -20 117 0 117 0 23 -20 c13 -11 31
-20 40 -20 9 0 27 -9 40 -20 l23 -20 37 0 37 0 23 -20 c13 -11 31 -20 40 -20
10 0 29 -9 43 -20 14 -11 32 -20 40 -20 8 0 26 -9 40 -20 14 -11 33 -20 42
-20 9 0 44 -26 78 -59 34 -32 73 -61 87 -64 14 -4 80 -61 148 -130 l122 -124
0 -20 c0 -11 18 -40 40 -63 22 -23 40 -50 40 -60 0 -9 9 -27 20 -40 11 -13 20
-31 20 -40 0 -9 9 -27 20 -40 11 -13 20 -31 20 -40 0 -10 18 -37 40 -60 22
-23 40 -50 40 -60 0 -9 9 -27 20 -40 l20 -23 0 -57 0 -57 20 -23 20 -23 0 -37
0 -37 20 -23 20 -23 0 -77 0 -77 20 -23 20 -23 0 -57 0 -57 20 -23 20 -23 0
-117 0 -117 20 -23 20 -23 0 -77 0 -77 20 -23 20 -23 0 -97 0 -97 20 -23 20
-23 0 -51 0 -51 -20 -30 c-24 -36 -26 -92 -4 -124 l16 -23 -11 -11 c-13 -13
-15 -47 -2 -47 5 0 13 -9 16 -20 l6 -20 -20 -34 -21 -33 0 -115 0 -115 20 -23
20 -23 0 -131 0 -131 -20 -30 c-25 -38 -25 -56 0 -85 l20 -23 0 -94 0 -95 -20
-25 c-12 -15 -20 -41 -20 -63 l0 -37 20 -23 c26 -30 26 -84 0 -117 -12 -15
-20 -41 -20 -63 l0 -37 20 -23 20 -23 0 -317 0 -317 -20 -23 -20 -23 0 -57 0
-57 20 -23 20 -23 0 -117 0 -117 -20 -23 -20 -23 0 -38 c0 -21 7 -44 15 -53
19 -19 19 -33 0 -52 l-15 -15 0 -117 0 -118 16 -22 15 -22 -15 -22 c-21 -30
-20 -50 4 -81 l20 -25 0 -55 0 -54 -20 -23 c-25 -29 -25 -47 0 -85 l20 -30 0
-111 0 -111 -20 -23 -20 -23 0 -96 0 -97 16 -22 15 -22 -15 -22 -16 -22 0
-356 0 -355 20 -30 c25 -38 25 -46 0 -75 l-20 -23 0 -356 0 -357 16 -22 15
-22 -15 -22 c-20 -29 -20 -87 0 -116 l15 -22 -15 -22 -16 -22 0 -254 0 -254
17 -29 17 -28 -17 -19 -17 -19 0 -252 0 -252 22 -39 23 -39 -23 -30 -22 -30 0
-73 0 -73 20 -30 20 -30 0 -171 0 -171 -20 -26 c-25 -31 -25 -44 0 -82 l20
-30 0 -1831 0 -1830 -15 -20 c-19 -25 -19 -42 0 -60 l15 -15 0 -132 0 -132
-20 -30 c-11 -16 -20 -46 -20 -66 l0 -36 20 -23 20 -23 0 -51 0 -51 -20 -30
-20 -30 0 -176 0 -176 20 -23 c24 -27 25 -40 5 -66 -16 -21 -20 -54 -6 -54 5
0 13 -9 16 -20 l6 -20 -20 -34 c-26 -42 -26 -57 -1 -86 26 -30 25 -72 -2 -120
l-23 -40 17 -31 18 -31 -15 -21 -15 -21 0 -117 0 -116 20 -23 20 -23 0 -1157
0 -1157 -20 -23 c-25 -29 -25 -44 1 -86 l20 -34 -6 -20 c-3 -11 -11 -20 -16
-20 -14 0 -10 -33 6 -54 l15 -20 0 -72 0 -73 -15 -15 c-19 -18 -19 -35 0 -60
l15 -20 0 -391 0 -392 -20 -23 -20 -23 0 -237 0 -237 -20 -23 -20 -23 0 -37 0
-37 -20 -23 -20 -23 0 -97 0 -97 -20 -23 -20 -23 0 -37 0 -37 -20 -23 -20 -23
0 -37 0 -37 -20 -23 -20 -23 0 -37 c0 -22 -8 -48 -20 -63 -11 -14 -20 -32 -20
-40 0 -8 -9 -26 -20 -40 -11 -14 -20 -32 -20 -40 0 -8 -9 -26 -20 -40 -11 -14
-20 -32 -20 -41 0 -9 -17 -35 -39 -59 -21 -23 -41 -53 -44 -67 -8 -32 -287
-310 -312 -310 -10 0 -37 -18 -61 -40 -24 -22 -51 -40 -60 -40 -9 0 -27 -9
-41 -20 -14 -11 -32 -20 -40 -20 -8 0 -26 -9 -40 -20 l-26 -20 -476 0 -477 0
-12 -12 -12 -12 0 -277 0 -276 -20 -26 -21 -26 3 -143 3 -143 386 -5 387 -5
19 -18 20 -17 40 0 40 0 26 20 c32 26 77 26 110 0 29 -23 46 -25 82 -8 l26 12
20 -12 c11 -7 58 -12 118 -12 l98 0 27 21 26 20 19 -6 c11 -3 25 -12 31 -20
l12 -15 203 0 202 0 26 20 25 20 47 0 48 0 33 -21 34 -21 82 6 c46 3 101 7
123 8 22 2 50 9 62 16 l22 12 1649 0 1650 0 12 -15 c16 -19 39 -19 64 0 l20
15 209 0 209 0 25 -20 26 -20 39 0 40 0 25 20 26 20 209 0 210 0 25 -20 26
-20 219 0 220 0 25 20 c32 25 44 25 73 0 l23 -20 442 0 442 0 26 20 c32 26 77
26 110 0 l25 -20 60 0 59 0 27 21 26 20 19 -6 c11 -3 25 -12 31 -20 17 -21 53
-19 83 5 l25 20 310 0 309 0 26 -20 25 -20 40 0 39 0 26 20 25 20 149 0 149 0
20 -15 c25 -19 48 -19 64 0 l12 15 450 0 450 0 29 -17 29 -17 29 17 29 17 202
0 202 0 29 -17 29 -17 29 17 29 17 124 0 123 0 30 -20 30 -20 75 0 75 0 30 20
c17 11 41 20 55 20 14 0 39 -9 55 -20 l30 -20 255 0 255 0 30 20 30 20 83 0
84 0 29 -17 29 -17 29 17 29 17 127 0 127 0 25 -20 26 -20 99 0 100 0 25 20
26 20 169 0 170 0 25 -20 c30 -24 66 -26 83 -5 6 8 20 17 31 20 l19 6 26 -20
27 -21 58 0 c33 0 68 5 78 12 l20 12 26 -12 c14 -7 51 -12 82 -12 l56 0 20 17
19 18 227 5 226 5 5 986 5 987 18 19 17 20 0 135 0 135 20 26 20 25 0 75 0 74
20 26 20 25 0 55 0 54 20 26 20 25 0 55 0 54 20 26 20 25 0 74 0 73 20 30 20
30 0 87 0 86 42 82 43 81 -17 29 -17 30 35 41 34 41 0 151 0 152 20 30 20 30
0 126 0 127 37 72 37 72 -11 17 -11 17 14 25 13 24 1 110 0 110 20 30 c11 17
20 43 20 58 0 16 8 42 17 58 l17 29 -18 30 -17 30 20 34 21 33 0 69 0 69 20
30 c11 17 20 44 20 60 0 17 9 44 20 60 l20 30 0 55 0 55 -20 30 -20 30 0 114
0 114 -68 69 -69 68 -34 0 c-19 0 -47 9 -64 20 l-30 20 -134 0 -135 0 -73 -73
-73 -73 0 -32 c0 -17 -18 -65 -40 -107 -22 -42 -40 -87 -40 -100 0 -13 -18
-58 -40 -100 l-40 -76 0 -44 0 -44 -40 -76 c-22 -42 -40 -88 -40 -103 0 -15
-9 -40 -20 -57 -11 -16 -20 -42 -20 -56 0 -14 -54 -133 -120 -264 -66 -131
-120 -248 -120 -260 0 -27 -212 -450 -243 -484 -13 -14 -57 -93 -97 -176 l-73
-150 -74 -76 c-40 -42 -73 -84 -73 -92 0 -9 -18 -37 -40 -62 -22 -25 -40 -52
-40 -60 0 -8 -18 -35 -40 -60 -22 -25 -40 -53 -40 -62 0 -9 -51 -68 -114 -132
-63 -64 -121 -132 -129 -151 -18 -44 -366 -390 -391 -390 -10 0 -74 -54 -141
-120 -67 -66 -130 -120 -138 -120 -9 0 -37 -18 -62 -40 -25 -22 -53 -40 -61
-40 -7 0 -31 -15 -51 -33 -21 -19 -69 -49 -108 -67 -38 -18 -87 -48 -108 -67
-20 -18 -44 -33 -52 -33 -8 0 -32 -15 -52 -33 -21 -18 -87 -57 -148 -87 -60
-29 -122 -64 -136 -77 -35 -32 -296 -163 -325 -163 -12 0 -75 -27 -139 -60
-66 -34 -130 -60 -147 -60 -16 0 -41 -9 -55 -20 -15 -11 -41 -20 -60 -20 -20
0 -46 -9 -60 -20 -14 -11 -32 -20 -40 -20 -8 0 -26 -9 -40 -20 -15 -11 -41
-20 -60 -20 -20 0 -46 -9 -60 -20 l-26 -20 -54 0 -55 0 -25 -20 -26 -20 -54 0
-55 0 -25 -20 c-15 -11 -41 -20 -60 -20 -20 0 -46 -9 -60 -20 l-26 -20 -114 0
-115 0 -25 -20 -26 -20 -54 0 -55 0 -25 -20 -26 -20 -94 0 -95 0 -25 -20 -26
-20 -134 0 -135 0 -25 -20 -26 -20 -538 0 -538 0 -15 -15 c-18 -19 -35 -19
-60 0 l-20 15 -211 0 -211 0 -23 -16 -23 -17 -28 17 -28 16 -189 0 -189 0 -23
-16 -23 -17 -28 17 -28 16 -210 0 -209 0 -26 -20 c-32 -25 -58 -25 -87 0 l-23
20 -114 0 -113 0 -44 -40 -43 -40 -620 0 -619 0 -12 12 c-7 7 -12 18 -12 26 0
8 -9 25 -20 39 -11 14 -20 32 -20 40 0 8 -9 26 -20 40 l-20 26 0 4876 0 4877
16 23 17 23 -17 28 -16 28 0 3172 0 3172 20 25 c12 15 20 41 20 63 l0 37 -20
23 -20 23 0 37 0 37 20 23 c25 29 25 51 0 80 l-20 23 0 37 0 37 20 23 c25 29
25 51 0 80 l-20 23 0 177 0 177 20 23 c11 13 20 31 20 40 0 10 -9 29 -20 43
-25 32 -25 48 0 77 l20 23 0 416 0 416 -20 30 -20 30 0 71 0 71 20 23 20 23 0
76 0 77 -16 22 -15 22 15 22 16 22 0 277 0 276 20 23 20 23 0 38 c0 21 7 44
15 53 19 18 19 35 0 60 -21 28 -19 79 5 106 l20 23 0 77 0 78 40 42 c45 48 48
63 20 105 -25 38 -25 46 0 75 l20 23 0 37 0 37 20 23 c11 13 20 31 20 40 0 9
9 27 20 40 l20 23 0 57 0 57 20 23 20 23 0 57 0 57 20 23 c11 13 20 31 20 40
0 9 9 27 20 40 11 13 20 31 20 40 0 9 9 27 20 40 11 13 20 31 20 40 0 10 18
37 40 60 22 23 40 51 40 61 0 25 334 359 359 359 10 0 38 18 61 40 23 22 50
40 60 40 9 0 27 9 40 20 13 11 31 20 40 20 9 0 27 9 40 20 l23 20 37 0 37 0
23 20 23 20 37 0 37 0 23 20 23 20 57 0 57 0 23 20 23 20 157 0 157 0 23 20
c13 11 31 20 41 20 10 0 41 23 69 50 l50 51 0 38 0 38 20 23 c25 29 25 55 0
87 l-20 26 0 74 0 75 -20 25 c-11 14 -20 33 -20 42 0 21 -90 111 -111 111 -9
0 -28 9 -42 20 l-25 20 -1169 -4 c-642 -2 -1197 -4 -1233 -4 -36 0 -256 2
-488 4 l-424 4 -34 -21 -34 -21 -34 21 -33 21 -353 0 -353 0 -33 -21 -34 -21
-34 21 -33 21 -1159 0 -1159 -1 -24 -19z"/><path d="M11840 29870 l-23 -20 -98 0 -98 0 -71 -70 c-38 -39 -70 -79 -70 -89
0 -10 -9 -28 -20 -41 l-20 -23 0 -37 0 -37 -20 -23 -20 -23 0 -77 0 -77 -20
-23 -20 -23 0 -37 0 -37 -20 -23 -20 -23 0 -97 0 -97 -20 -23 -20 -23 0 -57 0
-57 -20 -23 -20 -23 0 -58 0 -58 -16 -15 c-9 -9 -20 -32 -25 -51 -6 -19 -14
-35 -19 -35 -6 0 -10 -9 -10 -20 0 -11 5 -20 10 -20 15 0 12 -29 -5 -46 l-15
-15 0 -78 0 -78 -20 -23 -20 -23 0 -117 0 -117 -20 -23 -20 -23 0 -37 0 -37
-20 -23 -20 -23 0 -37 0 -37 -20 -23 -20 -23 0 -37 0 -37 -20 -23 -20 -23 0
-117 0 -117 -20 -23 -20 -23 0 -77 0 -77 -20 -23 c-11 -13 -20 -31 -20 -40 0
-9 -9 -27 -20 -40 -25 -29 -25 -47 0 -85 l20 -30 0 -51 0 -52 -40 -42 -40 -42
0 -79 0 -78 -15 -15 c-19 -18 -19 -35 0 -60 20 -26 19 -39 -5 -66 l-20 -23 0
-37 0 -37 -20 -23 -20 -23 0 -57 0 -57 -20 -23 -20 -23 0 -77 0 -77 -20 -23
-20 -23 0 -97 0 -97 -20 -23 -20 -23 0 -78 0 -78 -16 -15 c-9 -9 -20 -32 -25
-51 -6 -19 -14 -35 -19 -35 -15 0 -12 -25 7 -59 l18 -30 -23 -30 -22 -30 0
-116 0 -115 36 -40 c20 -21 63 -53 96 -70 l61 -30 44 0 44 0 39 -22 40 -23 28
16 29 16 24 -13 24 -13 99 -1 100 0 108 108 108 108 0 58 0 58 20 25 c11 15
20 41 20 60 0 20 9 46 20 60 11 15 20 41 20 60 0 20 9 46 20 60 11 14 20 32
20 40 0 8 9 26 20 40 11 15 20 41 20 60 0 20 9 46 20 60 11 14 20 32 20 40 0
8 9 26 20 40 11 15 20 41 20 60 0 20 9 46 20 60 11 14 20 32 20 40 0 8 9 26
20 40 11 15 20 41 20 61 l0 35 40 43 c22 24 40 51 40 60 0 9 9 27 20 41 11 14
20 32 20 41 0 8 18 34 40 58 l40 44 0 36 0 37 60 63 c33 34 60 70 60 80 0 9
18 36 40 60 22 24 40 51 40 61 0 9 54 72 120 138 l120 122 0 39 0 40 429 432
430 432 21 0 c11 0 40 18 64 40 24 22 48 40 53 40 21 0 203 98 237 128 l37 32
35 0 35 0 64 60 64 60 35 0 35 0 46 40 46 40 32 0 c18 0 46 9 62 20 17 11 42
20 57 20 15 0 61 18 103 40 l76 40 44 0 44 0 76 40 c42 22 88 40 103 40 15 0
41 9 57 20 l30 20 70 0 70 0 30 20 30 20 50 0 50 0 30 20 30 20 50 0 50 0 30
20 30 20 70 0 70 0 30 20 30 20 130 0 130 0 30 20 30 20 90 0 90 0 30 20 30
20 130 0 131 0 23 16 23 17 28 -17 c16 -9 49 -16 77 -16 l48 0 30 20 30 20
530 0 530 0 30 -20 30 -20 110 0 110 0 30 -20 30 -20 46 0 45 0 99 -50 99 -49
173 -173 174 -173 49 -100 50 -100 0 -42 0 -42 40 -76 c22 -42 40 -88 40 -103
0 -15 9 -40 20 -57 l20 -30 0 -90 0 -90 20 -30 20 -30 0 -190 0 -190 20 -30
20 -30 0 -52 0 -52 -15 -15 c-19 -18 -19 -35 0 -60 l15 -20 0 -152 0 -153 -15
-15 c-19 -18 -19 -35 0 -60 l15 -20 0 -571 0 -571 -16 -23 -17 -23 17 -28 c22
-38 20 -82 -4 -113 -25 -31 -25 -44 0 -82 l20 -30 0 -130 0 -131 -16 -23 -17
-23 17 -28 16 -28 0 -2414 0 -2414 16 -22 15 -22 -15 -22 -16 -22 0 -3078 0
-3077 -15 -15 c-19 -18 -19 -35 0 -60 l15 -20 0 -772 0 -771 -20 -26 c-24 -30
-26 -60 -5 -77 8 -7 15 -18 15 -25 0 -7 -7 -18 -15 -25 l-15 -12 0 -277 0
-277 -16 -23 -17 -23 17 -28 c22 -38 20 -82 -4 -113 l-20 -25 0 -134 0 -134
-16 -23 -16 -23 17 -33 18 -32 -21 -35 -22 -35 0 -129 0 -129 -20 -30 -20 -30
0 -110 0 -110 -20 -30 -20 -30 0 -50 0 -50 -20 -30 c-11 -16 -20 -43 -20 -60
0 -16 -9 -43 -20 -60 l-20 -30 0 -110 0 -110 -20 -30 c-11 -16 -20 -43 -20
-60 0 -16 -9 -43 -20 -60 -11 -16 -20 -42 -20 -57 0 -15 -18 -61 -40 -103 -22
-42 -40 -88 -40 -103 0 -15 -9 -40 -20 -57 -11 -16 -20 -43 -20 -60 0 -16 -9
-43 -20 -60 -11 -16 -20 -43 -20 -60 0 -16 -9 -43 -20 -60 -11 -16 -20 -42
-20 -57 0 -15 -18 -61 -40 -103 -22 -42 -40 -89 -40 -105 l0 -29 -40 -46 -40
-46 0 -35 0 -34 -33 -37 c-19 -21 -50 -72 -70 -113 -20 -42 -45 -84 -57 -95
-12 -11 -39 -56 -60 -100 -21 -44 -50 -91 -64 -104 -14 -13 -30 -38 -36 -55
l-10 -31 -308 -308 c-169 -169 -315 -307 -324 -307 -9 0 -38 -18 -63 -40 -25
-22 -53 -40 -61 -40 -8 0 -44 -27 -79 -60 -35 -33 -72 -60 -80 -60 -9 0 -54
-36 -100 -80 -46 -44 -90 -80 -99 -80 -8 0 -36 -18 -61 -40 l-46 -40 -32 0
c-18 0 -45 -9 -62 -20 l-30 -20 -70 0 -70 0 -30 -20 -30 -20 -70 0 -70 0 -30
20 -30 20 -50 0 -50 0 -30 -20 -30 -20 -190 0 -191 0 -23 16 -23 16 -24 -12
-23 -13 -16 13 -16 13 -23 -13 -24 -12 -23 16 -23 16 -71 0 -70 0 -30 20 -30
20 -70 0 -70 0 -30 20 c-16 11 -42 20 -57 20 -15 0 -61 18 -103 40 -42 22 -87
40 -100 40 -13 0 -58 18 -100 40 -42 22 -89 40 -105 40 l-29 0 -46 40 -46 40
-35 0 -34 0 -37 34 c-21 18 -54 40 -73 49 -42 18 -360 336 -360 360 0 8 -18
37 -40 62 -22 25 -40 53 -40 61 0 8 -27 44 -60 79 -33 35 -60 71 -60 79 0 8
-18 36 -40 61 -22 25 -40 53 -40 60 0 8 -14 31 -32 51 -40 46 -128 219 -128
253 0 14 -9 40 -20 56 -11 17 -20 44 -20 60 0 17 -9 44 -20 60 -11 17 -20 44
-20 60 0 17 -9 44 -20 60 l-20 30 0 50 0 50 -20 30 -20 30 0 50 0 50 -20 30
c-11 17 -20 44 -20 60 0 17 -9 44 -20 60 -11 17 -20 44 -20 60 0 17 -9 44 -20
60 l-20 30 0 67 0 67 -40 76 c-22 42 -40 88 -40 103 0 15 -9 41 -20 57 -11 17
-20 44 -20 60 0 17 -9 44 -20 60 -11 17 -20 41 -20 55 0 32 -130 293 -163 329
-14 14 -32 42 -40 61 -17 40 -206 230 -230 230 -9 0 -37 18 -62 40 -25 22 -53
40 -61 40 -8 0 -44 27 -79 60 l-64 60 -35 0 -35 0 -46 40 -46 40 -32 0 c-18 0
-45 9 -62 20 -16 11 -43 20 -60 20 -16 0 -43 9 -60 20 l-30 20 -53 0 -53 0
-39 -22 -38 -22 -46 42 -46 42 -35 0 c-20 0 -53 -10 -75 -22 l-38 -23 -19 18
c-24 21 -42 21 -67 2 l-20 -15 -70 0 -71 0 -30 -20 c-16 -11 -43 -20 -60 -20
-16 0 -43 -9 -60 -20 -16 -11 -41 -20 -55 -20 -32 0 -293 -130 -329 -163 -14
-14 -42 -32 -61 -40 -41 -17 -310 -286 -310 -310 0 -9 -18 -37 -40 -62 -22
-25 -40 -53 -40 -60 0 -8 -14 -31 -32 -51 -39 -44 -128 -219 -128 -250 0 -13
-18 -57 -40 -99 l-40 -76 0 -207 0 -207 -20 -30 -20 -30 0 -56 0 -56 20 -23
20 -23 0 -97 0 -97 20 -23 20 -23 0 -37 0 -37 20 -23 20 -23 0 -57 0 -57 20
-23 c11 -13 20 -31 20 -40 0 -9 9 -27 20 -40 11 -13 20 -31 20 -40 0 -9 9 -27
20 -40 11 -13 20 -31 20 -40 0 -9 9 -27 20 -40 11 -13 20 -31 20 -40 0 -9 9
-27 20 -40 11 -13 20 -31 20 -40 0 -9 9 -27 20 -40 11 -13 20 -31 20 -40 0
-10 18 -37 40 -60 22 -23 40 -50 40 -60 0 -10 18 -37 40 -60 22 -23 40 -51 40
-61 0 -25 414 -439 439 -439 11 0 47 -27 81 -60 34 -33 70 -60 80 -60 10 0 37
-18 60 -40 23 -22 50 -40 60 -40 10 0 46 -27 80 -60 34 -33 70 -60 80 -60 10
0 37 -18 60 -40 23 -22 50 -40 60 -40 10 0 46 -27 80 -60 34 -33 70 -60 79
-60 10 0 28 -9 41 -20 13 -11 31 -20 40 -20 9 0 27 -9 40 -20 13 -11 31 -20
40 -20 9 0 27 -9 40 -20 13 -11 31 -20 40 -20 9 0 27 -9 40 -20 13 -11 31 -20
40 -20 10 0 37 -18 60 -40 l42 -40 38 0 37 0 23 -20 c13 -11 31 -20 40 -20 9
0 27 -9 40 -20 l23 -20 37 0 37 0 23 -20 c13 -11 31 -20 40 -20 9 0 27 -9 40
-20 l23 -20 37 0 37 0 23 -20 c13 -11 31 -20 40 -20 9 0 27 -9 40 -20 13 -11
31 -20 40 -20 9 0 27 -9 40 -20 l23 -20 57 0 57 0 23 -20 23 -20 37 0 37 0 23
-20 23 -20 37 0 37 0 23 -20 23 -20 77 0 77 0 23 -20 23 -20 57 0 57 0 23 -20
23 -20 97 0 97 0 23 -20 23 -20 98 0 98 0 15 -15 c17 -17 46 -20 46 -5 0 15 29
12 46 -5 l15 -15 158 0 158 0 26 -20 25 -20 292 0 291 0 38 -22 38 -22 35 22
35 22 69 0 69 0 30 -20 30 -20 90 0 90 0 30 20 30 20 230 0 230 0 30 20 30 20
50 0 51 0 23 -16 23 -17 28 17 28 16 89 0 88 0 30 20 30 20 110 0 110 0 30 20
c17 11 44 20 60 20 17 0 44 9 60 20 17 11 44 20 60 20 17 0 44 9 60 20 l30 20
50 0 50 0 30 20 30 20 50 0 50 0 30 20 30 20 50 0 50 0 30 20 c17 11 44 20 60
20 17 0 44 9 60 20 17 11 44 20 60 20 17 0 44 9 60 20 17 11 45 20 62 20 l33 0
37 33 c21 19 210 119 428 227 218 108 407 208 428 227 20 18 44 33 53 33 9 0
36 18 60 40 24 22 51 40 60 40 9 0 36 18 60 40 24 22 51 40 60 40 9 0 36 18 60
40 24 22 52 40 61 40 10 0 82 63 161 140 80 78 152 140 162 140 10 0 55 36 100
80 45 44 90 80 101 80 25 0 279 254 279 280 0 10 43 63 100 120 55 56 100 110
100 120 0 10 36 55 80 100 44 45 80 90 80 100 0 9 18 37 40 60 l40 42 0 38 0
38 60 62 c33 34 60 71 60 82 0 11 27 48 60 82 l60 63 0 37 0 36 40 44 c22 24
40 51 40 60 0 9 18 36 40 60 l40 43 0 37 0 36 40 44 40 43 0 37 0 36 40 44
c22 24 40 50 40 58 0 9 9 27 20 41 11 14 20 32 20 40 0 8 9 26 20 40 11 14 20
40 20 60 0 19 9 45 20 60 11 14 20 32 20 41 0 9 18 36 40 60 l40 43 0 35 c0
20 9 46 20 61 12 15 20 40 20 61 l0 36 40 44 40 43 0 35 c0 20 9 46 20 61 l20
25 0 55 0 54 20 26 c11 14 20 40 20 60 0 19 9 45 20 60 11 14 20 40 20 60 0
19 9 45 20 60 11 14 20 32 20 40 0 8 9 26 20 40 l20 25 0 95 0 94 20 26 c11
14 20 40 20 60 0 19 9 45 20 60 l20 25 0 75 0 74 20 26 20 25 0 95 0 94 20 26
20 25 0 94 0 93 20 30 20 30 0 90 0 90 20 30 20 30 0 70 0 70 20 30 20 30 0
250 0 250 20 30 20 30 0 250 0 250 20 30 c24 37 26 92 3 117 l-17 19 17 28 17
29 0 1069 0 1069 15 20 c19 25 19 42 0 60 l-15 15 0 3098 0 3098 20 26 c25 31
25 44 0 82 l-20 30 0 291 0 291 20 26 c25 31 25 44 0 82 l-20 30 0 250 0 251
16 23 17 23 -17 28 -16 28 0 90 0 89 20 26 20 25 0 54 0 53 -20 30 -20 30 0
230 0 230 20 30 c25 38 25 51 0 82 l-20 26 0 91 0 91 20 30 c25 38 25 90 0
122 l-20 26 0 51 0 51 20 30 c25 38 25 90 0 122 l-20 26 0 71 0 71 20 30 c25
38 25 49 -2 86 l-22 30 18 33 18 34 -16 23 -16 23 0 71 0 70 20 30 c25 38 25
51 0 82 l-20 26 0 91 0 92 16 23 17 23 -17 28 -16 28 0 129 0 128 20 30 20 30
0 116 0 116 -20 23 -20 23 0 131 0 131 20 30 20 30 0 210 0 210 20 30 20 30 0
130 0 130 20 30 c11 17 20 44 20 60 0 17 9 44 20 60 l20 30 0 50 0 50 20 30
c11 17 20 44 20 60 0 17 9 44 20 60 l20 30 0 50 0 50 20 30 c11 17 20 42 20
56 0 14 22 69 49 122 l48 97 52 54 c28 30 51 63 51 72 0 10 82 100 182 201
l182 183 181 90 c99 50 191 90 205 90 14 0 39 9 55 20 l30 20 90 0 90 0 30 20
30 20 94 0 94 0 104 102 c57 57 106 113 109 125 l6 22 -21 34 c-26 43 -26 74
-1 112 28 42 25 58 -20 110 l-40 46 0 76 0 76 -49 48 -48 49 -154 0 -154 0
-30 20 -30 20 -74 0 -74 0 -19 -17 -19 -17 -28 17 -29 17 -375 0 -374 0 -23
-20 -23 -20 -38 0 c-21 0 -44 7 -53 15 -8 8 -20 15 -26 15 -6 0 -18 -7 -26
-15 l-15 -15 -58 0 -58 0 -23 20 c-13 11 -31 20 -40 20 -9 0 -27 -9 -40 -20
-13 -11 -31 -20 -40 -20 -9 0 -27 9 -40 20 l-23 20 -117 0 -117 0 -23 -20 -23
-20 -77 0 -77 0 -23 20 -23 20 -57 0 -57 0 -23 -20 c-13 -11 -31 -20 -40 -20
-9 0 -27 9 -40 20 -27 24 -53 26 -74 5 -8 -8 -20 -15 -26 -15 -6 0 -18 7 -26
15 l-15 15 -158 0 -158 0 -23 -20 c-13 -11 -31 -20 -40 -20 -9 0 -27 9 -40 20
l-23 20 -117 0 -117 0 -23 -20 -23 -20 -117 0 -117 0 -23 20 -23 20 -58 0 -58
0 -15 -15 c-8 -8 -20 -15 -26 -15 -6 0 -18 7 -26 15 -9 8 -24 15 -34 15 -10 0
-25 -7 -34 -15 -8 -8 -20 -15 -26 -15 -6 0 -18 7 -26 15 -21 21 -47 19 -74 -5
-27 -24 -53 -26 -74 -5 -17 17 -46 20 -46 5 0 -15 -29 -12 -46 5 -9 8 -33 15
-54 15 -21 0 -45 -7 -54 -15 -8 -8 -20 -15 -26 -15 -6 0 -18 7 -26 15 l-15 15
-398 0 -398 0 -26 20 c-14 11 -32 20 -40 20 -8 0 -26 -9 -40 -20 -31 -24 -79
-26 -118 -3 l-28 17 -19 -17 -19 -17 -154 0 -155 0 -23 16 -23 17 -28 -17 -28
-16 -547 0 -548 0 -35 22 -35 21 -42 -23 -42 -23 -35 21 -35 22 -49 0 -49 0
-30 -20 -30 -20 -50 0 -50 0 -30 20 c-37 24 -83 26 -114 4 l-23 -17 -28 17 -28
16 -89 0 -89 0 -23 -16 -23 -16 -23 12 -23 12 -23 -16 -23 -16 -89 0 -88 0 -38
22 -38 22 -35 -22 -35 -22 -249 0 -249 0 -30 20 -30 20 -93 0 -94 0 -25 -20
c-31 -25 -90 -26 -115 -3 l-19 17 -28 -17 c-17 -10 -50 -17 -81 -17 l-52 0
-25 20 c-14 11 -32 20 -40 20 -8 0 -26 -9 -40 -20 -14 -11 -32 -20 -40 -20 -8
0 -26 9 -40 20 -14 11 -33 20 -43 20 -9 0 -27 -9 -40 -20 l-23 -20 -57 0 -57
0 -23 20 c-13 11 -31 20 -40 20 -9 0 -27 -9 -40 -20 l-23 -20 -57 0 -57 0 -23
20 -23 20 -118 0 -118 0 -15 -15 c-8 -8 -20 -15 -26 -15 -6 0 -18 7 -26 15
l-15 15 -59 0 -59 0 -15 -15 c-8 -8 -20 -15 -26 -15 -6 0 -18 7 -26 15 -21 21
-47 19 -74 -5 -27 -24 -53 -26 -74 -5 -17 17 -46 20 -46 5 0 -15 -29 -12 -46
5 -9 8 -33 15 -54 15 -21 0 -45 -7 -54 -15 -8 -8 -20 -15 -26 -15 -6 0 -18 7
-26 15 -9 8 -24 15 -34 15 -10 0 -25 -7 -34 -15 -8 -8 -20 -15 -26 -15 -6 0
-18 7 -26 15 -9 8 -32 15 -53 15 l-38 0 -23 -20z"/></g></g>
</svg>